# xmcd
#
# Track frame offsets: 
#        150
#        17520
#        27653
#        39263
#        55049
#        67235
#        78932
#        91716
#        107044
#        121467
#        136452
#        151435
#        169812
#
# Disc length: 2396 seconds
#
# Revision: 6
# Processed by: cddbd v1.5.2PL0 Copyright (c) Steve Scherf et al.
# Submitted via: ExactAudioCopyFreeDBPlugin 1.0
#
DISCID=a4095a0d
DTITLE=John Denver / Christmas like a Lullaby [LaserLight Digital]
DYEAR=1996
DGENRE=Holiday
TTITLE0=Christmas like a Lullaby
TTITLE1=The First Noël
TTITLE2=Away in a Manger
TTITLE3=The Children of Bethlehem
TTITLE4=Jingle Bells
TTITLE5=White Christmas
TTITLE6=Marvelous Toy
TTITLE7=Blue Christmas
TTITLE8=Rudolph the Red Nosed Reindeer
TTITLE9=Little Drummer Boy
TTITLE10=Mary's Little Boy Child
TTITLE11=The Christmas Song
TTITLE12=Have Yourself a Merry Little Christmas
EXTD=
EXTT0=
EXTT1=
EXTT2=
EXTT3=
EXTT4=
EXTT5=
EXTT6=
EXTT7=
EXTT8=
EXTT9=
EXTT10=
EXTT11=
EXTT12=
PLAYORDER=
.
